<svg width="22" height="16" viewBox="0 0 22 16" fill="none" xmlns="http://www.w3.org/2000/svg">
<path d="M3.22461 0C1.23361 1.992 0 4.74239 0 7.77539C0 10.8084 1.23361 13.5588 3.22461 15.5508L4.63867 14.1367C3.00867 12.5067 2 10.2564 2 7.77539C2 5.29439 3.00867 3.04406 4.63867 1.41406L3.22461 0ZM18.7754 0L17.3613 1.41406C18.9913 3.04406 20 5.29439 20 7.77539C20 10.2564 18.9913 12.5067 17.3613 14.1367L18.7754 15.5508C20.7664 13.5588 22 10.8084 22 7.77539C22 4.74239 20.7664 1.992 18.7754 0ZM6.05273 2.82812C4.78473 4.09512 4 5.84539 4 7.77539C4 9.70539 4.78473 11.4557 6.05273 12.7227L7.46679 11.3086C6.56079 10.4036 5.99999 9.1534 5.99999 7.7754C5.99999 6.3974 6.56179 5.1482 7.46679 4.2422L6.05273 2.82812ZM15.9473 2.82812L14.5332 4.24218C15.4392 5.14718 16 6.39738 16 7.77538C16 9.15338 15.4382 10.4026 14.5332 11.3086L15.9473 12.7226C17.2143 11.4546 18 9.70537 18 7.77537C18 5.84537 17.2153 4.09512 15.9473 2.82812ZM11 4.77539C9.34315 4.77539 8 6.11854 8 7.77539C8 9.43224 9.34315 10.7754 11 10.7754C12.6569 10.7754 14 9.43224 14 7.77539C14 6.11854 12.6569 4.77539 11 4.77539Z" fill="#7FA348"/>
</svg>
