<svg width="15" height="14" viewBox="0 0 15 14" fill="none" xmlns="http://www.w3.org/2000/svg">
<path d="M4.07715 7.04468V9.50464L1.61816 8.27515L4.07715 7.04468Z" stroke="#4A5565" stroke-width="0.5" stroke-linejoin="round"/>
<path d="M4.07715 3.85107V6.31104L1.61816 5.08154L4.07715 3.85107Z" stroke="#4A5565" stroke-width="0.5" stroke-linejoin="round"/>
<path d="M7.27051 2.25427V4.71423L4.81152 3.48474L7.27051 2.25427Z" stroke="#4A5565" stroke-width="0.5" stroke-linejoin="round"/>
<path d="M10.4639 3.85107V6.31104L8.00488 5.08154L10.4639 3.85107Z" stroke="#4A5565" stroke-width="0.5" stroke-linejoin="round"/>
<path d="M13.6572 5.44788V7.90784L11.1982 6.67834L13.6572 5.44788Z" stroke="#4A5565" stroke-width="0.5" stroke-linejoin="round"/>
<path d="M10.4639 7.04468V9.50464L8.00488 8.27515L10.4639 7.04468Z" stroke="#4A5565" stroke-width="0.5" stroke-linejoin="round"/>
<path d="M7.27051 8.64185V11.1018L4.81152 9.87231L7.27051 8.64185Z" stroke="#4A5565" stroke-width="0.5" stroke-linejoin="round"/>
<path d="M10.4639 10.2385V12.6985L8.00488 11.469L10.4639 10.2385Z" stroke="#4A5565" stroke-width="0.5" stroke-linejoin="round"/>
<path d="M1.33496 7.90808L1.33496 5.44812L3.79395 6.67761L1.33496 7.90808Z" stroke="#4A5565" stroke-width="0.5" stroke-linejoin="round"/>
<path d="M4.52832 9.50476V7.0448L6.9873 8.27429L4.52832 9.50476Z" stroke="#4A5565" stroke-width="0.5" stroke-linejoin="round"/>
<path d="M7.72168 11.1016V8.6416L10.1807 9.87109L7.72168 11.1016Z" stroke="#4A5565" stroke-width="0.5" stroke-linejoin="round"/>
<path d="M4.52832 6.31079V3.85083L6.9873 5.08032L4.52832 6.31079Z" stroke="#4A5565" stroke-width="0.5" stroke-linejoin="round"/>
<path d="M4.52832 3.11719V0.657227L6.9873 1.88672L4.52832 3.11719Z" stroke="#4A5565" stroke-width="0.5" stroke-linejoin="round"/>
<path d="M4.52832 3.11719V0.657227L6.9873 1.88672L4.52832 3.11719Z" stroke="#4A5565" stroke-width="0.5" stroke-linejoin="round"/>
<path d="M7.72168 4.71399V2.25403L10.1807 3.48352L7.72168 4.71399Z" stroke="#4A5565" stroke-width="0.5" stroke-linejoin="round"/>
<path d="M10.915 9.50476V7.0448L13.374 8.27429L10.915 9.50476Z" stroke="#4A5565" stroke-width="0.5" stroke-linejoin="round"/>
<path d="M10.915 6.31079V3.85083L13.374 5.08032L10.915 6.31079Z" stroke="#4A5565" stroke-width="0.5" stroke-linejoin="round"/>
</svg>
